<?xml version="1.0" encoding="utf-8"?>

<!DOCTYPE svg PUBLIC "-//W3C//DTD SVG 1.1//EN" "http://www.w3.org/Graphics/SVG/1.1/DTD/svg11.dtd">
<!-- Uploaded to: SVG Repo, www.svgrepo.com, Generator: SVG Repo Mixer Tools -->
<svg height="800px" width="800px" version="1.1" id="_x32_" xmlns="http://www.w3.org/2000/svg" xmlns:xlink="http://www.w3.org/1999/xlink" 
	 viewBox="0 0 512 512"  xml:space="preserve">
<style type="text/css">
	.st0{fill:#000000;}
</style>
<g>
	<path class="st0" d="M359.51,367.614c-19.106-7.148-40.877-18.276-40.877-32.676c0-9.533,0-21.444,0-37.782
		c6.996-19.393,17.51-20.781,22.768-50.546c12.254-4.379,19.258-11.384,28.009-42.026c6.574-23.064-3.112-29.254-9.382-30.905
		c0.128-1.229,0.256-2.466,0.359-3.917c2.369-34.543,22.425-137.078-47.012-149.332c-18.38-14.296-30.043-20.774-69.437-18.38
		C219.001,2.042,200.046,7.547,173.632,0c-35.245,29.565-25.561,126.66-20.63,173.504c-6.199,1.388-16.889,7.148-10.052,31.08
		c8.744,30.641,15.748,37.646,28.001,42.026c5.258,29.765,21.252,39.322,22.417,50.546c0,16.338,0,28.248,0,37.782
		c0,14.4-23.494,26.55-40.877,32.676C119.058,379.397,25.911,414.275,34.073,512h443.856
		C486.09,414.275,392.712,380.035,359.51,367.614z"/>
</g>
</svg>