<?xml version="1.0" encoding="iso-8859-1"?>
<!-- Uploaded to: SVG Repo, www.svgrepo.com, Generator: SVG Repo Mixer Tools -->
<svg version="1.1" id="Layer_1" xmlns="http://www.w3.org/2000/svg" xmlns:xlink="http://www.w3.org/1999/xlink" 
	 viewBox="0 0 512 512" xml:space="preserve">
<rect x="10.449" y="41.796" style="fill:#10BAFC;" width="491.102" height="360.187"/>
<path style="fill:#FF1A1A;" d="M357.235,136.901v111.795c0,12.841-10.426,23.257-23.289,23.257H178.054
	c-12.857,0-23.273-10.418-23.273-23.257V136.901c0-12.841,10.417-23.244,23.273-23.244h155.891
	C346.808,113.657,357.235,124.061,357.235,136.901L357.235,136.901z"/>
<polygon style="fill:#FFFFFF;" points="234.954,222.509 286.469,192.814 234.954,163.102 "/>
<rect x="10.449" y="343.813" style="fill:#3F5968;" width="491.102" height="58.167"/>
<path d="M501.551,31.347H10.449C4.679,31.347,0,36.025,0,41.796v360.187c0,5.77,4.679,10.449,10.449,10.449H200.16l-7.132,47.323
	h-30.236c-5.77,0-10.449,4.679-10.449,10.449s4.679,10.449,10.449,10.449h39.229H309.98h0.021h39.208
	c5.77,0,10.449-4.679,10.449-10.449s-4.679-10.449-10.449-10.449h-30.236l-7.132-47.323h189.711c5.77,0,10.449-4.679,10.449-10.449
	V41.796C512,36.025,507.321,31.347,501.551,31.347z M297.839,459.755h-83.678l7.132-47.323h69.413L297.839,459.755z
	 M299.698,391.534h-87.395H20.898v-37.269h392.288c5.77,0,10.449-4.679,10.449-10.449c0-5.77-4.679-10.449-10.449-10.449H20.898
	V52.245h470.204v284.223c-1.894-1.914-4.52-3.101-7.425-3.101h-38.251c-5.77,0-10.449,4.679-10.449,10.449
	c0,5.77,4.679,10.449,10.449,10.449h38.251c2.905,0,5.532-1.187,7.425-3.101v40.371L299.698,391.534L299.698,391.534z"/>
<path d="M291.69,183.763l-51.516-29.713c-3.233-1.865-7.214-1.863-10.447,0.003c-3.232,1.867-5.222,5.315-5.222,9.048v59.407
	c0,3.731,1.989,7.181,5.221,9.048c1.618,0.934,3.422,1.401,5.228,1.401c1.801,0,3.603-0.465,5.218-1.396l51.516-29.695
	c3.236-1.865,5.231-5.315,5.231-9.051C296.918,189.079,294.926,185.629,291.69,183.763z M245.403,204.426v-23.234l20.148,11.621
	L245.403,204.426z"/>
<path d="M333.946,103.208H178.054c-18.595,0-33.722,15.114-33.722,33.693v111.795c0,18.587,15.128,33.706,33.722,33.706h155.891
	c18.603,0,33.738-15.121,33.738-33.706V136.901C367.684,118.323,352.549,103.208,333.946,103.208z M346.786,248.695
	c0,7.062-5.761,12.808-12.84,12.808H178.054c-7.072,0-12.824-5.746-12.824-12.808V136.901c0-7.055,5.753-12.795,12.824-12.795
	h155.891c7.079,0,12.84,5.74,12.84,12.795v111.794H346.786z"/>
<path d="M58.362,141.059c-5.77,0-10.449,4.678-10.449,10.449v149.358c0,5.77,4.679,10.449,10.449,10.449s10.449-4.679,10.449-10.449
	V151.508C68.811,145.737,64.132,141.059,58.362,141.059z"/>
<path d="M58.362,85.855c-5.77,0-10.449,4.678-10.449,10.449v23.714c0,5.771,4.679,10.449,10.449,10.449s10.449-4.678,10.449-10.449
	V96.304C68.811,90.533,64.132,85.855,58.362,85.855z"/>
</svg>