<?xml version="1.0" encoding="utf-8"?>
<!-- Svg Vector Icons : http://www.onlinewebfonts.com/icon -->
<!DOCTYPE svg PUBLIC "-//W3C//DTD SVG 1.1//EN" "http://www.w3.org/Graphics/SVG/1.1/DTD/svg11.dtd">
<svg version="1.1" xmlns="http://www.w3.org/2000/svg" xmlns:xlink="http://www.w3.org/1999/xlink" x="0px" y="0px" viewBox="0 0 1000 1000" enable-background="new 0 0 1000 1000" xml:space="preserve">
<metadata> Svg Vector Icons : http://www.onlinewebfonts.com/icon </metadata>
<g><path d="M299.3,493.2l-140.6-84.3c-11.3-6.9-26-3.2-32.6,8.1c-6.9,11.3-3.2,26,8.1,32.8l140.6,84.3c11.3,6.9,26,3.2,32.6-8.3C314.2,514.5,310.6,499.8,299.3,493.2z M449.2,987c5.6,1.7,12,1.2,17.9-2.2C461.7,987.8,455.3,988.8,449.2,987z M299.3,493.2l-140.6-84.3c-11.3-6.9-26-3.2-32.6,8.1c-6.9,11.3-3.2,26,8.1,32.8l140.6,84.3c11.3,6.9,26,3.2,32.6-8.3C314.2,514.5,310.6,499.8,299.3,493.2z M299.3,493.2l-140.6-84.3c-11.3-6.9-26-3.2-32.6,8.1c-6.9,11.3-3.2,26,8.1,32.8l140.6,84.3c11.3,6.9,26,3.2,32.6-8.3C314.2,514.5,310.6,499.8,299.3,493.2z M299.3,493.2l-140.6-84.3c-11.3-6.9-26-3.2-32.6,8.1c-6.9,11.3-3.2,26,8.1,32.8l140.6,84.3c11.3,6.9,26,3.2,32.6-8.3C314.2,514.5,310.6,499.8,299.3,493.2z M299.3,493.2l-140.6-84.3c-11.3-6.9-26-3.2-32.6,8.1c-6.9,11.3-3.2,26,8.1,32.8l140.6,84.3c11.3,6.9,26,3.2,32.6-8.3C314.2,514.5,310.6,499.8,299.3,493.2z M299.3,493.2l-140.6-84.3c-11.3-6.9-26-3.2-32.6,8.1c-6.9,11.3-3.2,26,8.1,32.8l140.6,84.3c11.3,6.9,26,3.2,32.6-8.3C314.2,514.5,310.6,499.8,299.3,493.2z"/><path d="M467.1,984.8c-5.9,3.4-12.2,3.9-17.9,2.2C455.3,988.8,461.7,987.8,467.1,984.8z"/><path d="M479.5,923.2V499.9l372.8-211.7l38.2-23.1c7.6-5,9.1-11.3,10.1-15.8c1-9.3-3.4-19.1-13-24L466.3,14.6c-6.9-3.4-14.7-3.4-21.6,0L23.4,225.2c-15.7,10.3-13.2,33.1-13.2,35.5v449.5c0,8.3,4.4,16.2,11.5,20.6c0,0,412.3,249.1,419.4,252.3c14.5,7.1,23.5,5.1,30.4,1.7l137.2-79.4c11.8-6.9,15.7-21.8,8.8-33.6c-6.6-11.8-21.8-15.7-33.3-9.1L489.3,918v-0.2L479.5,923.2 M431.5,499.9v422.1L57.9,696.8V287.7L431.5,499.9z M455.5,458.2L84.9,248L455.5,62.8L826.1,248L455.5,458.2z"/><path d="M787.9,888l193.3-116.1c5.4-3.4,8.8-9.3,8.8-15.9V543.1c0-7.5-5.6-12.7-11.8-15.7l-4.9-2.4c-0.5-0.2-1.2-0.2-1.7-0.2h1.5l-187.9-93.8c-5.1-2.4-11.3-2.4-16.4,0l-187.6,93.8c-13.7,5.3-17.1,17-17.1,23.6V756c0,6.6,3.4,12.5,9.1,15.9c0,0,191.5,114.9,192.5,115.2C765.6,887.1,777,895.5,787.9,888z M758.8,841l-158-95.3V574.4l158,89.4V841z M777.1,632.3L623,544.8l154.1-76.9L931,544.8L777.1,632.3z M953.3,745.7l-157.8,95V663.9l157.8-89.4V745.7z"/></g>
</svg>